<?xml version="1.0" encoding="UTF-8"?>
<svg id="_レイヤー_1" data-name="レイヤー 1" xmlns="http://www.w3.org/2000/svg" viewBox="0 0 500 200">
  <defs>
    <style>
      .cls-1 {
        fill: #fff;
      }

      .cls-2 {
        fill: #d70063;
      }

      .cls-3 {
        fill: none;
        stroke: #000;
        stroke-linecap: round;
        stroke-miterlimit: 10;
      }

      .cls-4 {
        fill: #3c001e;
      }
    </style>
  </defs>
  <path class="cls-2" d="M157.6,14.74l-6.53,4.78c-.19.14-.48-.05-.44-.28l1.48-7.96c-7.99-3.11-17.54.08-22.54,8.02-5.62,8.93-11.07,32.88-2.63,38.19,8.44,5.31,27.57-10.04,33.19-18.97,4.99-7.94,3.73-17.93-2.53-23.79Z"/>
  <path class="cls-2" d="M87.93,5.36l-.23,8.44c0,.24-.34.37-.51.19l-5.62-6.3c-7.67,4.6-11.14,14.53-7.78,23.72,3.78,10.34,20.06,30.14,29.83,26.57s9.33-29.16,5.55-39.5c-3.36-9.19-12.41-14.54-21.24-13.11Z"/>
  <path class="cls-2" d="M42.8,61.83l6.72,4.42c.19.13.12.46-.1.5l-7.92,1.4c-.12,8.52,6.18,16.3,15.31,18.18,10.27,2.12,34.46-1.14,36.46-10.84s-18.94-22.17-29.2-24.29c-9.12-1.88-17.99,2.76-21.26,10.63Z"/>
  <g>
    <path d="M146.76,181.97v-2.46h1.77v2.46h-1.77ZM146.76,195.69v-11.99h1.77v11.99h-1.77Z"/>
    <path d="M159.14,181.25v14.45h-1.81v-14.45h-6.36v-1.73h14.47v1.73h-6.3Z"/>
    <path d="M172.96,195.69c-4.04,0-5.51-1.47-5.51-5.57v-10.62h1.79v10.56c0,2.98.91,3.9,3.72,3.9h7.52v1.73h-7.52Z"/>
    <path class="cls-2" d="M198.45,195.71h-9.52v-1.73h9.42c2.07,0,2.86-1.05,2.86-2.8v-.24c0-1.85-.74-2.76-2.68-2.76h-5.51c-3.08,0-4.29-1.51-4.29-4.25v-.22c0-2.64,1.55-4.24,4.31-4.24h9.13v1.75h-8.99c-1.87,0-2.64,1.04-2.64,2.54v.12c0,1.65.76,2.62,2.78,2.62h5.51c2.9,0,4.22,1.65,4.22,4.28v.5c0,2.82-1.59,4.43-4.59,4.43Z"/>
    <path class="cls-2" d="M213.2,195.71h-4.33c-2.92,0-4.06-1.25-4.06-3.42v-.78c0-2.05,1.03-3.4,4-3.4h5.01c.66,0,1.19.12,1.67.3v-1.19c0-1.17-.5-2.13-2.49-2.13h-7.56v-1.63h7.91c2.68,0,3.9,1.37,3.9,3.78v5.05c0,2.17-1.15,3.42-4.06,3.42ZM215.49,191.1c0-1.11-.66-1.55-1.93-1.55h-4.49c-1.91,0-2.48.6-2.48,1.95v.68c0,1.25.5,1.93,2.48,1.93h3.92c1.89,0,2.51-.54,2.51-1.93v-1.07Z"/>
    <path class="cls-2" d="M229.23,195.69v-.71c0-4.02-1.81-5.13-6.42-5.13h-1.43v5.85h-1.79v-16.18h1.79v8.67h2.19c3.02,0,5.67-1.13,5.67-4.35v-.38h1.79v.44c0,2.54-1.55,4.43-3.9,5.17,2.88.79,3.9,2.96,3.9,5.85v.79h-1.79Z"/>
    <path class="cls-2" d="M239.98,195.69h-2.25c-3.26,0-4.77-1.33-4.77-4.47v-7.79h1.81v7.63c0,2.27.99,2.92,3.18,2.92h1.83c2.23,0,3.22-.68,3.22-2.92v-7.63h1.75v7.79c0,3.04-1.49,4.47-4.77,4.47Z"/>
    <path class="cls-2" d="M252.37,185.17c-2.53,0-3.68,1.25-3.68,3.6v6.94h-1.77v-6.9c0-3.64,2.07-5.37,5.21-5.37h4.31v1.73h-4.08Z"/>
    <path class="cls-2" d="M266.23,195.71h-4.33c-2.92,0-4.06-1.25-4.06-3.42v-.78c0-2.05,1.03-3.4,4-3.4h5.01c.66,0,1.19.12,1.67.3v-1.19c0-1.17-.5-2.13-2.49-2.13h-7.55v-1.63h7.91c2.68,0,3.9,1.37,3.9,3.78v5.05c0,2.17-1.15,3.42-4.06,3.42ZM268.51,191.1c0-1.11-.66-1.55-1.93-1.55h-4.49c-1.91,0-2.49.6-2.49,1.95v.68c0,1.25.5,1.93,2.49,1.93h3.92c1.89,0,2.5-.54,2.5-1.93v-1.07Z"/>
    <path d="M284.46,181.29c-2.68,0-3.68,1.05-3.68,3.7v1.85h10.58v1.79h-10.58v7.08h-1.75v-10.78c0-3.68,1.49-5.43,5.41-5.43h7.87v1.79h-7.85Z"/>
    <path d="M302.57,190.68h-6.92v1.19c0,1.41.5,2.23,2.46,2.23h7.95v1.61h-8.19c-2.74,0-4.02-1.33-4.02-3.86v-4.81c0-1.91,1.13-3.6,4.18-3.6h4.47c2.92,0,3.74,1.65,3.74,3.34v.83c0,1.83-.75,3.06-3.68,3.06ZM304.46,186.88c0-1.07-.5-1.81-2.09-1.81h-4.12c-2.09,0-2.6.96-2.6,2.07v2.15h6.72c1.59,0,2.09-.6,2.09-1.69v-.71Z"/>
    <path d="M316.33,195.69h-8.27v-1.57h7.93c1.75,0,2.33-.64,2.33-1.75v-.5c0-1.11-.58-1.75-2.33-1.75h-3.76c-2.84,0-4-1.21-4-3.22v-.18c0-2.33,1.09-3.32,3.98-3.32h7.32v1.61h-7.16c-1.67,0-2.27.44-2.27,1.75v.12c0,1.09.6,1.75,2.27,1.75h3.84c2.82,0,3.98,1.19,3.98,3.22v.58c0,1.99-1.07,3.26-3.86,3.26Z"/>
    <path d="M326.99,185.17v6.66c0,1.61.79,2.15,2.33,2.15h3.04v1.71h-3.32c-2.54,0-3.82-1.19-3.82-3.54v-6.98h-3.44v-1.73h3.44v-2.92h1.77v2.92h6.02v1.73h-6.02Z"/>
    <path d="M335.74,181.97v-2.46h1.77v2.46h-1.77ZM335.74,195.69v-11.99h1.77v11.99h-1.77Z"/>
    <path d="M350.07,192.51c-.83,2.82-1.63,3.22-3.52,3.22h-.44c-1.59,0-2.67-.24-3.54-3.2l-2.68-9.11h1.75l2.49,8.47c.58,1.99,1.17,2.07,2.07,2.07h.26c1.05,0,1.49-.08,2.09-2.11l2.49-8.43h1.75l-2.7,9.09Z"/>
    <path d="M362.7,195.71h-4.33c-2.92,0-4.06-1.25-4.06-3.42v-.78c0-2.05,1.03-3.4,4-3.4h5.01c.66,0,1.19.12,1.67.3v-1.19c0-1.17-.5-2.13-2.49-2.13h-7.56v-1.63h7.91c2.68,0,3.9,1.37,3.9,3.78v5.05c0,2.17-1.15,3.42-4.06,3.42ZM364.98,191.1c0-1.11-.66-1.55-1.93-1.55h-4.49c-1.91,0-2.49.6-2.49,1.95v.68c0,1.25.5,1.93,2.49,1.93h3.92c1.89,0,2.5-.54,2.5-1.93v-1.07Z"/>
    <path d="M369.36,195.69v-16.22h1.79v16.22h-1.79Z"/>
  </g>
  <path class="cls-2" d="M105.16,90.94h15.77v1.86c-2.09,10.44-5.57,19.95-10.44,28.53-4.87,8.58-11.21,16.2-19.02,22.85l-1.28-1.28c2.78-4.64,5.16-9.82,7.13-15.54,1.97-5.72,3.6-11.69,4.87-17.92,1.28-6.22,2.26-12.39,2.96-18.5ZM92.64,90.94h27.95l6.38-9.97c2.63,2.55,4.83,4.7,6.61,6.44,1.78,1.74,3.32,3.38,4.64,4.93-.31,1.24-1.35,1.86-3.13,1.86h-41.52l-.93-3.25ZM105.74,61.24l20.53,1.97c-.08.85-.41,1.57-.99,2.15s-1.68.99-3.31,1.22v100.56c0,.46-.66,1.04-1.97,1.74-1.32.7-2.96,1.33-4.93,1.91s-4,.87-6.09.87h-3.25V61.24ZM122.1,103.58c4.72,1.55,8.31,3.32,10.79,5.33,2.47,2.01,4.1,4.06,4.87,6.15.77,2.09.91,4,.41,5.74-.5,1.74-1.45,3.11-2.84,4.12-1.39,1.01-3,1.43-4.81,1.28-1.82-.15-3.62-1.08-5.39-2.78.15-2.24.06-4.5-.29-6.79-.35-2.28-.87-4.5-1.57-6.67-.7-2.16-1.47-4.1-2.32-5.8l1.16-.58ZM172.9,117.38h17.75v1.86c-1.7,7.65-3.98,14.36-6.84,20.12-2.86,5.76-6.75,10.73-11.66,14.9-4.91,4.18-11.29,7.65-19.14,10.44-7.85,2.78-17.65,4.99-29.4,6.61l-.58-1.51c10.9-3.48,19.75-7.52,26.56-12.12,6.8-4.6,12.04-10.17,15.72-16.7,3.67-6.53,6.21-14.4,7.6-23.6ZM150.75,98.59l20.64,3.71c-.16.77-.6,1.43-1.33,1.97-.74.54-1.91.85-3.54.93-.77,2.4-1.88,5.47-3.31,9.22-1.43,3.75-3,7.73-4.7,11.95-1.7,4.21-3.4,8.29-5.1,12.23-1.7,3.94-3.21,7.31-4.52,10.09-1.86.77-4.37,1.12-7.54,1.04-3.17-.08-6.42-.77-9.74-2.09,1.24-2.47,2.61-5.39,4.12-8.76,1.51-3.36,3.03-6.94,4.58-10.73,1.55-3.79,3.02-7.54,4.41-11.25s2.61-7.15,3.65-10.32c1.04-3.17,1.84-5.84,2.38-8ZM132.88,66.81c5.64,2.17,9.99,4.64,13.05,7.42,3.05,2.78,5.1,5.59,6.15,8.41,1.04,2.82,1.29,5.41.75,7.77-.54,2.36-1.61,4.22-3.19,5.57-1.59,1.35-3.46,1.95-5.62,1.8-2.17-.15-4.33-1.31-6.5-3.48.23-3.09.12-6.22-.35-9.39-.46-3.17-1.16-6.26-2.09-9.28-.93-3.02-2.01-5.76-3.25-8.23l1.04-.58ZM132.19,117.38h47.44l8.35-11.13c2.09,1.62,3.9,3.07,5.45,4.35,1.55,1.28,3.19,2.63,4.93,4.06,1.74,1.43,3.31,2.8,4.7,4.12-.31,1.24-1.43,1.86-3.36,1.86h-66.57l-.93-3.25ZM149.7,139.88c9.59.15,17.61.97,24.07,2.44,6.46,1.47,11.64,3.3,15.54,5.51,3.9,2.21,6.73,4.58,8.47,7.13,1.74,2.55,2.61,4.99,2.61,7.31s-.66,4.31-1.97,5.97c-1.32,1.66-3.04,2.72-5.16,3.19-2.13.46-4.47.08-7.02-1.16-1.7-2.55-4.27-5.55-7.71-8.99-3.44-3.44-7.62-6.96-12.53-10.55-4.91-3.6-10.42-6.82-16.53-9.69l.23-1.16ZM155.96,63.1c5.26,2.63,9.24,5.45,11.95,8.47,2.71,3.02,4.47,5.97,5.28,8.87s.89,5.49.23,7.77c-.66,2.28-1.8,4.04-3.42,5.28-1.62,1.24-3.5,1.72-5.62,1.45-2.13-.27-4.23-1.53-6.32-3.77.31-3.17.33-6.34.06-9.51-.27-3.17-.7-6.3-1.28-9.39-.58-3.09-1.26-5.99-2.03-8.7l1.16-.46ZM183.57,63.8l20.41,8.35c-.31,1.01-1.55,1.47-3.71,1.39-1.62,3.56-3.85,7.44-6.67,11.66-2.82,4.22-5.99,8.35-9.51,12.41-3.52,4.06-7.13,7.67-10.84,10.84l-1.04-1.04c1.39-3.02,2.71-6.44,3.94-10.27,1.24-3.83,2.36-7.75,3.36-11.77,1-4.02,1.86-7.9,2.55-11.66.7-3.75,1.2-7.05,1.51-9.92Z"/>
  <path class="cls-1" d="M68.73,58.89c0,.8-.29,1.49-.86,2.06s-1.26.86-2.06.86-1.49-.29-2.06-.86c-.57-.57-.86-1.26-.86-2.06s.29-1.49.86-2.06,1.26-.86,2.06-.86,1.49.29,2.06.86c.57.57.86,1.26.86,2.06ZM63.38,84.01v-20.12l4.91.58-.69,19.05-4.22.48Z"/>
  <path class="cls-1" d="M92.84,47.84v-23.21h-7.42l-1.03-3.06,20.84-1.3v4.36h-7.21l-.69,22.76-4.5.45Z"/>
  <path class="cls-1" d="M132.99,46.66v-27.46l5.32.69-1.03,23.03,12.91-1.03v4.77h-17.2Z"/>
  <g>
    <path class="cls-4" d="M263.76,150.32l.09,4.37c.18,11.03-4.83,18.13-26.79,18.13-17.13,0-24.88-6.2-24.88-16.95,0-7.84,6.74-16.22,26.06-16.22,6.11,0,12.03.55,17.31,1.37v-12.48h-45.93v-7.2h45.93v-13.12h-45.56v-7.11h45.56v-8.11h7.93v8.11h24.88v7.11h-24.88v13.12h24.88v7.2h-24.88v14.4c8.38,2.46,17.77,6.29,26.24,11.75v8.93c-9.66-6.2-17.68-10.48-25.97-13.3ZM255.37,148.22c-3.64-1.09-11.21-2.1-17.04-2.1-13.49,0-17.77,5.38-17.77,9.48,0,6.93,6.38,10.12,17.59,10.12,13.03,0,17.22-3.74,17.22-12.03v-5.47Z"/>
    <path class="cls-4" d="M318.44,168.45c-5.56,0-12.3-.46-17.04-1v-8.56c4.92.82,12.03,1.37,17.4,1.37,31.71-.18,43.29-14.12,43.29-29.34s-9.48-23.96-29.71-23.96c-15.4,0-30.25,2.73-40.28,5.19v-8.47c10.57-2.28,24.42-4.65,40.37-4.65,26.79,0,38.36,12.12,38.36,31.99s-14.49,37.45-52.4,37.45Z"/>
    <path class="cls-4" d="M392.62,171.91h-6.93v-7.93h6.65c33.72,0,46.93-7.38,46.93-31.07,0-17.31-8.11-28.16-23.05-28.16s-26.97,10.94-29.8,31.44c0,2.83.18,5.74.18,8.93v3.1h-7.75c0-18.59,1-39.91,3.1-54.13h8.11c-1,5.65-1.91,13.21-2.37,20.96,5.56-10.21,15.76-17.95,29.25-17.95,19.32,0,30.71,13.4,30.71,35.9,0,28.07-15.76,38.91-55.04,38.91Z"/>
  </g>
  <line class="cls-3" x1="377.6" y1="189.37" x2="400.77" y2="189.37"/>
  <line class="cls-3" x1="117" y1="189.37" x2="140.17" y2="189.37"/>
</svg>